<svg width="512" height="512" viewBox="0 0 512 512" fill="none" xmlns="http://www.w3.org/2000/svg">
<path d="M272 152H128C119.513 152 111.374 155.371 105.373 161.373C99.3714 167.374 96 175.513 96 184V280H304V184C304 175.513 300.629 167.374 294.627 161.373C288.626 155.371 280.487 152 272 152Z" fill="#007A9E"/>
<path d="M136 280V424H184V328H216V424H264V280H136Z" fill="#969696"/>
<path d="M304 264H312C316.243 264 320.313 265.686 323.314 268.686C326.314 271.687 328 275.757 328 280C328 284.243 326.314 288.313 323.314 291.314C320.313 294.314 316.243 296 312 296H304V264Z" fill="#969696"/>
<path d="M256 88H216L248 120H256C258.122 120 260.157 119.157 261.657 117.657C263.157 116.157 264 114.122 264 112V96C264 93.8783 263.157 91.8434 261.657 90.3431C260.157 88.8429 258.122 88 256 88Z" fill="#007A9E"/>
<path d="M144 88C141.878 88 139.843 88.8429 138.343 90.3431C136.843 91.8434 136 93.8783 136 96V112C136 114.122 136.843 116.157 138.343 117.657C139.843 119.157 141.878 120 144 120H175.44C177.83 119.961 180.181 119.387 182.32 118.32L152 88H144Z" fill="#007A9E"/>
<path d="M240 24H128V56C128.023 63.0765 130.391 69.9457 134.733 75.5331C139.076 81.1205 145.148 85.1109 152 86.88V56H248V86.88C255.452 84.8571 261.921 80.208 266.214 73.7902C270.507 67.3724 272.335 59.6187 271.361 51.959C270.386 44.2993 266.675 37.2503 260.911 32.112C255.148 26.9737 247.721 24.0925 240 24Z" fill="#969696"/>
<path d="M24 24H88V56H24V24Z" fill="#969696"/>
<path d="M368 368H432V400H368V368Z" fill="#969696"/>
<path d="M272 325.2C275.738 327.026 279.84 327.983 284 328C290.782 328.07 297.359 325.675 302.509 321.261C307.659 316.847 311.031 310.713 312 304C318.365 304 324.47 301.471 328.971 296.971C333.471 292.47 336 286.365 336 280C336 273.635 333.471 267.53 328.971 263.029C324.47 258.529 318.365 256 312 256V184C312 173.391 307.786 163.217 300.284 155.716C292.783 148.214 282.609 144 272 144H239.12C243.779 139.361 247.596 133.947 250.4 128H256C260.243 128 264.313 126.314 267.314 123.314C270.314 120.313 272 116.243 272 112V96C272.004 91.8528 270.398 87.866 267.52 84.88C273.275 79.3653 277.251 72.257 278.938 64.467C280.625 56.6771 279.947 48.5606 276.99 41.1589C274.032 33.7573 268.931 27.4078 262.341 22.9251C255.75 18.4425 247.971 16.031 240 16H128C125.878 16 123.843 16.8429 122.343 18.3431C120.843 19.8434 120 21.8783 120 24V56C120.02 61.4074 121.136 66.7547 123.281 71.7185C125.426 76.6823 128.556 81.1597 132.48 84.88C129.602 87.866 127.996 91.8528 128 96V112C128 116.243 129.686 120.313 132.686 123.314C135.687 126.314 139.757 128 144 128H149.6C152.404 133.947 156.221 139.361 160.88 144H128C117.391 144 107.217 148.214 99.7157 155.716C92.2143 163.217 88 173.391 88 184V248H56C53.8783 248 51.8434 248.843 50.3431 250.343C48.8429 251.843 48 253.878 48 256V328C48 330.122 48.8429 332.157 50.3431 333.657C51.8434 335.157 53.8783 336 56 336C58.1217 336 60.1566 335.157 61.6569 333.657C63.1571 332.157 64 330.122 64 328V264H88V300C88 307.426 90.95 314.548 96.201 319.799C101.452 325.05 108.574 328 116 328C120.16 327.983 124.262 327.026 128 325.2V440H112C105.635 440 99.5303 442.529 95.0294 447.029C90.5286 451.53 88 457.635 88 464V488C88 490.122 88.8429 492.157 90.3431 493.657C91.8434 495.157 93.8783 496 96 496H184C186.122 496 188.157 495.157 189.657 493.657C191.157 492.157 192 490.122 192 488V336H208V488C208 490.122 208.843 492.157 210.343 493.657C211.843 495.157 213.878 496 216 496H304C306.122 496 308.157 495.157 309.657 493.657C311.157 492.157 312 490.122 312 488V464C312 457.635 309.471 451.53 304.971 447.029C300.47 442.529 294.365 440 288 440H272V325.2ZM144 264H168C169.252 263.992 170.485 263.691 171.6 263.12L187.6 255.12C189.331 254.079 190.604 252.421 191.163 250.48C191.722 248.539 191.526 246.458 190.615 244.656C189.703 242.853 188.144 241.462 186.249 240.761C184.354 240.061 182.265 240.103 180.4 240.88L166.08 248H144V232H193.44C195.122 236.633 198.189 240.636 202.225 243.465C206.262 246.294 211.071 247.812 216 247.812C220.929 247.812 225.738 246.294 229.775 243.465C233.811 240.636 236.878 236.633 238.56 232H256V272H144V264ZM208 224C208 222.418 208.469 220.871 209.348 219.555C210.227 218.24 211.477 217.214 212.939 216.609C214.4 216.003 216.009 215.845 217.561 216.154C219.113 216.462 220.538 217.224 221.657 218.343C222.776 219.462 223.538 220.887 223.846 222.439C224.155 223.991 223.997 225.6 223.391 227.061C222.786 228.523 221.76 229.773 220.445 230.652C219.129 231.531 217.582 232 216 232C213.878 232 211.843 231.157 210.343 229.657C208.843 228.157 208 226.122 208 224ZM296 300C296 303.183 294.736 306.235 292.485 308.485C290.235 310.736 287.183 312 284 312C280.817 312 277.765 310.736 275.515 308.485C273.264 306.235 272 303.183 272 300V288H296V300ZM320 280C320 282.122 319.157 284.157 317.657 285.657C316.157 287.157 314.122 288 312 288V272C314.122 272 316.157 272.843 317.657 274.343C319.157 275.843 320 277.878 320 280ZM184 157.6C194.427 160.798 205.573 160.798 216 157.6V160C216 164.243 214.314 168.313 211.314 171.314C208.313 174.314 204.243 176 200 176C195.757 176 191.687 174.314 188.686 171.314C185.686 168.313 184 164.243 184 160V157.6ZM256 112H224.56C223.242 111.993 221.947 111.661 220.788 111.033C219.63 110.405 218.645 109.5 217.92 108.4L209.6 96H256V112ZM240 80H160V64H240V80ZM136 32H240C244.832 32.0286 249.543 33.5152 253.516 36.2652C257.49 39.0152 260.54 42.9005 262.269 47.4129C263.998 51.9252 264.325 56.8543 263.206 61.5552C262.087 66.2561 259.576 70.5099 256 73.76V56C256 53.8783 255.157 51.8434 253.657 50.3431C252.157 48.8429 250.122 48 248 48H152C149.878 48 147.843 48.8429 146.343 50.3431C144.843 51.8434 144 53.8783 144 56V73.76C141.499 71.5233 139.495 68.7872 138.117 65.7281C136.739 62.669 136.018 59.355 136 56V32ZM144 96H190.4L182.4 108.4C181.675 109.5 180.69 110.405 179.532 111.033C178.373 111.661 177.078 111.993 175.76 112H144V96ZM175.44 128C179.399 128.001 183.297 127.023 186.787 125.153C190.277 123.283 193.249 120.578 195.44 117.28L200 110.4L204.56 117.28C206.751 120.578 209.723 123.283 213.213 125.153C216.703 127.023 220.601 128.001 224.56 128H232C228.274 132.968 223.443 137 217.889 139.777C212.334 142.554 206.21 144 200 144C193.79 144 187.666 142.554 182.111 139.777C176.557 137 171.726 132.968 168 128H175.44ZM104 184C104 177.635 106.529 171.53 111.029 167.029C115.53 162.529 121.635 160 128 160H168C168 168.487 171.371 176.626 177.373 182.627C183.374 188.629 191.513 192 200 192C208.487 192 216.626 188.629 222.627 182.627C228.629 176.626 232 168.487 232 160H272C278.365 160 284.47 162.529 288.971 167.029C293.471 171.53 296 177.635 296 184V272H272V200C272 197.878 271.157 195.843 269.657 194.343C268.157 192.843 266.122 192 264 192C261.878 192 259.843 192.843 258.343 194.343C256.843 195.843 256 197.878 256 200V216H238.56C236.878 211.367 233.811 207.364 229.775 204.535C225.738 201.706 220.929 200.188 216 200.188C211.071 200.188 206.262 201.706 202.225 204.535C198.189 207.364 195.122 211.367 193.44 216H144V200C144 197.878 143.157 195.843 141.657 194.343C140.157 192.843 138.122 192 136 192C133.878 192 131.843 192.843 130.343 194.343C128.843 195.843 128 197.878 128 200V248H104V184ZM116 312C112.817 312 109.765 310.736 107.515 308.485C105.264 306.235 104 303.183 104 300V264H128V300C128 303.183 126.736 306.235 124.485 308.485C122.235 310.736 119.183 312 116 312ZM176 480H104V464C104 461.878 104.843 459.843 106.343 458.343C107.843 456.843 109.878 456 112 456H136C138.122 456 140.157 455.157 141.657 453.657C143.157 452.157 144 450.122 144 448V432H176V480ZM184 320C181.878 320 179.843 320.843 178.343 322.343C176.843 323.843 176 325.878 176 328V416H144V288H256V416H224V328C224 325.878 223.157 323.843 221.657 322.343C220.157 320.843 218.122 320 216 320H184ZM288 456C290.122 456 292.157 456.843 293.657 458.343C295.157 459.843 296 461.878 296 464V480H224V432H256V448C256 450.122 256.843 452.157 258.343 453.657C259.843 455.157 261.878 456 264 456H288Z" fill="white" fill-opacity="0.5"/>
<path d="M24 64H48V96C48 98.1217 48.8429 100.157 50.3431 101.657C51.8434 103.157 53.8783 104 56 104H104C106.122 104 108.157 103.157 109.657 101.657C111.157 100.157 112 98.1217 112 96C112 93.8783 111.157 91.8434 109.657 90.3431C108.157 88.8429 106.122 88 104 88H64V64H88C90.1217 64 92.1566 63.1571 93.6569 61.6569C95.1571 60.1566 96 58.1217 96 56V24C96 21.8783 95.1571 19.8434 93.6569 18.3431C92.1566 16.8429 90.1217 16 88 16H24C21.8783 16 19.8434 16.8429 18.3431 18.3431C16.8429 19.8434 16 21.8783 16 24V56C16 58.1217 16.8429 60.1566 18.3431 61.6569C19.8434 63.1571 21.8783 64 24 64ZM32 32H80V48H32V32Z" fill="white" fill-opacity="0.5"/>
<path d="M432 360H368C365.878 360 363.843 360.843 362.343 362.343C360.843 363.843 360 365.878 360 368V400C360 402.122 360.843 404.157 362.343 405.657C363.843 407.157 365.878 408 368 408H432C434.122 408 436.157 407.157 437.657 405.657C439.157 404.157 440 402.122 440 400V368C440 365.878 439.157 363.843 437.657 362.343C436.157 360.843 434.122 360 432 360ZM424 392H376V376H424V392Z" fill="white" fill-opacity="0.5"/>
<path d="M432 424H392C389.878 424 387.843 424.843 386.343 426.343C384.843 427.843 384 429.878 384 432C384 434.122 384.843 436.157 386.343 437.657C387.843 439.157 389.878 440 392 440H432C434.122 440 436.157 439.157 437.657 437.657C439.157 436.157 440 434.122 440 432C440 429.878 439.157 427.843 437.657 426.343C436.157 424.843 434.122 424 432 424Z" fill="white" fill-opacity="0.5"/>
<path d="M416 456C413.878 456 411.843 456.843 410.343 458.343C408.843 459.843 408 461.878 408 464V480H336C333.878 480 331.843 480.843 330.343 482.343C328.843 483.843 328 485.878 328 488C328 490.122 328.843 492.157 330.343 493.657C331.843 495.157 333.878 496 336 496H416C418.122 496 420.157 495.157 421.657 493.657C423.157 492.157 424 490.122 424 488V464C424 461.878 423.157 459.843 421.657 458.343C420.157 456.843 418.122 456 416 456Z" fill="white" fill-opacity="0.5"/>
<path d="M472 16H360C353.635 16 347.53 18.5286 343.029 23.0294C338.529 27.5303 336 33.6348 336 40V200C336 206.365 338.529 212.47 343.029 216.971C347.53 221.471 353.635 224 360 224H472C478.365 224 484.47 221.471 488.971 216.971C493.471 212.47 496 206.365 496 200V40C496 33.6348 493.471 27.5303 488.971 23.0294C484.47 18.5286 478.365 16 472 16ZM480 200C480 202.122 479.157 204.157 477.657 205.657C476.157 207.157 474.122 208 472 208H360C357.878 208 355.843 207.157 354.343 205.657C352.843 204.157 352 202.122 352 200V40C352 37.8783 352.843 35.8434 354.343 34.3431C355.843 32.8429 357.878 32 360 32H472C474.122 32 476.157 32.8429 477.657 34.3431C479.157 35.8434 480 37.8783 480 40V200Z" fill="white" fill-opacity="0.5"/>
<path d="M432 176H400C397.878 176 395.843 176.843 394.343 178.343C392.843 179.843 392 181.878 392 184C392 186.122 392.843 188.157 394.343 189.657C395.843 191.157 397.878 192 400 192H432C434.122 192 436.157 191.157 437.657 189.657C439.157 188.157 440 186.122 440 184C440 181.878 439.157 179.843 437.657 178.343C436.157 176.843 434.122 176 432 176Z" fill="white" fill-opacity="0.5"/>
<path d="M376 64C380.418 64 384 60.4183 384 56C384 51.5817 380.418 48 376 48C371.582 48 368 51.5817 368 56C368 60.4183 371.582 64 376 64Z" fill="white" fill-opacity="0.5"/>
<path d="M408 64C412.418 64 416 60.4183 416 56C416 51.5817 412.418 48 408 48C403.582 48 400 51.5817 400 56C400 60.4183 403.582 64 408 64Z" fill="white" fill-opacity="0.5"/>
<path d="M392 120C392 117.878 391.157 115.843 389.657 114.343C388.157 112.843 386.122 112 384 112C381.878 112 379.843 112.843 378.343 114.343C376.843 115.843 376 117.878 376 120V144C376 146.122 376.843 148.157 378.343 149.657C379.843 151.157 381.878 152 384 152C386.122 152 388.157 151.157 389.657 149.657C391.157 148.157 392 146.122 392 144V120Z" fill="white" fill-opacity="0.5"/>
<path d="M408 104V144C408 146.122 408.843 148.157 410.343 149.657C411.843 151.157 413.878 152 416 152C418.122 152 420.157 151.157 421.657 149.657C423.157 148.157 424 146.122 424 144V104C424 101.878 423.157 99.8434 421.657 98.3431C420.157 96.8429 418.122 96 416 96C413.878 96 411.843 96.8429 410.343 98.3431C408.843 99.8434 408 101.878 408 104Z" fill="white" fill-opacity="0.5"/>
<path d="M448 72C445.878 72 443.843 72.8429 442.343 74.3431C440.843 75.8434 440 77.8783 440 80V144C440 146.122 440.843 148.157 442.343 149.657C443.843 151.157 445.878 152 448 152C450.122 152 452.157 151.157 453.657 149.657C455.157 148.157 456 146.122 456 144V80C456 77.8783 455.157 75.8434 453.657 74.3431C452.157 72.8429 450.122 72 448 72Z" fill="white" fill-opacity="0.5"/>
<path d="M424 256C428.418 256 432 252.418 432 248C432 243.582 428.418 240 424 240C419.582 240 416 243.582 416 248C416 252.418 419.582 256 424 256Z" fill="white" fill-opacity="0.5"/>
<path d="M392 288C396.418 288 400 284.418 400 280C400 275.582 396.418 272 392 272C387.582 272 384 275.582 384 280C384 284.418 387.582 288 392 288Z" fill="white" fill-opacity="0.5"/>
<path d="M424 288C428.418 288 432 284.418 432 280C432 275.582 428.418 272 424 272C419.582 272 416 275.582 416 280C416 284.418 419.582 288 424 288Z" fill="white" fill-opacity="0.5"/>
<path d="M360 288C364.418 288 368 284.418 368 280C368 275.582 364.418 272 360 272C355.582 272 352 275.582 352 280C352 284.418 355.582 288 360 288Z" fill="white" fill-opacity="0.5"/>
<path d="M97.92 376.96C97.9281 372.21 96.5807 367.556 94.0359 363.545C91.4912 359.535 87.8548 356.333 83.5539 354.317C79.2529 352.301 74.466 351.554 69.7553 352.164C65.0446 352.774 60.6057 354.715 56.96 357.76C52.0694 353.294 45.6049 350.953 38.9886 351.253C32.3723 351.553 26.1462 354.469 21.68 359.36C17.2137 364.251 14.8732 370.715 15.1733 377.331C15.4733 383.948 18.3894 390.174 23.28 394.64L51.28 422.64C52.0275 423.381 52.914 423.968 53.8887 424.366C54.8634 424.764 55.9071 424.966 56.96 424.96C58.0128 424.966 59.0565 424.764 60.0312 424.366C61.0059 423.968 61.8925 423.381 62.64 422.64L90.64 394.64C92.9666 392.324 94.8086 389.568 96.0585 386.532C97.3085 383.497 97.9413 380.243 97.92 376.96ZM79.28 383.28L56.96 405.68L34.64 383.28C33.3932 382.027 32.5448 380.433 32.2017 378.699C31.8586 376.965 32.0359 375.169 32.7115 373.535C33.3871 371.902 34.5307 370.505 35.9984 369.52C37.4662 368.535 39.1924 368.006 40.96 368C42.1371 367.991 43.3039 368.22 44.39 368.674C45.4762 369.127 46.4593 369.796 47.28 370.64L51.28 374.64C52.0237 375.39 52.9085 375.985 53.8834 376.391C54.8582 376.797 55.9039 377.006 56.96 377.006C58.0161 377.006 59.0617 376.797 60.0366 376.391C61.0115 375.985 61.8963 375.39 62.64 374.64L66.64 370.64C67.466 369.803 68.4501 369.139 69.535 368.685C70.6199 368.232 71.7841 367.998 72.96 367.998C74.1359 367.998 75.3001 368.232 76.385 368.685C77.4699 369.139 78.4539 369.803 79.28 370.64C80.1169 371.466 80.7814 372.45 81.2349 373.535C81.6885 374.62 81.922 375.784 81.922 376.96C81.922 378.136 81.6885 379.3 81.2349 380.385C80.7814 381.47 80.1169 382.454 79.28 383.28Z" fill="white" fill-opacity="0.5"/>
</svg>
